<?xml version="1.0" encoding="UTF-8" standalone="no"?><svg xmlns="http://www.w3.org/2000/svg" xmlns:xlink="http://www.w3.org/1999/xlink" contentScriptType="application/ecmascript" contentStyleType="text/css" height="307px" preserveAspectRatio="none" style="width:504px;height:307px;" version="1.1" viewBox="0 0 504 307" width="504px" zoomAndPan="magnify"><defs><filter height="300%" id="f1vbh1i8nn62ke" width="300%" x="-1" y="-1"><feGaussianBlur result="blurOut" stdDeviation="2.0"/><feColorMatrix in="blurOut" result="blurOut2" type="matrix" values="0 0 0 0 0 0 0 0 0 0 0 0 0 0 0 0 0 0 .4 0"/><feOffset dx="4.0" dy="4.0" in="blurOut2" result="blurOut3"/><feBlend in="SourceGraphic" in2="blurOut3" mode="normal"/></filter></defs><g><text fill="#000000" font-family="sans-serif" font-size="14" font-weight="bold" lengthAdjust="spacingAndGlyphs" textLength="325" x="89.5" y="24.5332">show information on HomeScreen bottom area</text><line style="stroke: #A80036; stroke-width: 1.0; stroke-dasharray: 5.0,5.0;" x1="100" x2="100" y1="84.2188" y2="248.625"/><line style="stroke: #A80036; stroke-width: 1.0; stroke-dasharray: 5.0,5.0;" x1="283" x2="283" y1="84.2188" y2="248.625"/><line style="stroke: #A80036; stroke-width: 1.0; stroke-dasharray: 5.0,5.0;" x1="480" x2="480" y1="84.2188" y2="248.625"/><text fill="#000000" font-family="sans-serif" font-size="14" lengthAdjust="spacingAndGlyphs" textLength="128" x="33" y="81.1426">homescreen-service</text><ellipse cx="100" cy="50.6094" fill="#FEFECE" filter="url(#f1vbh1i8nn62ke)" rx="12" ry="12" style="stroke: #A80036; stroke-width: 2.0;"/><line style="stroke: #A80036; stroke-width: 2.0;" x1="88" x2="112" y1="64.6094" y2="64.6094"/><text fill="#000000" font-family="sans-serif" font-size="14" lengthAdjust="spacingAndGlyphs" textLength="128" x="33" y="262.1582">homescreen-service</text><ellipse cx="100" cy="281.2344" fill="#FEFECE" filter="url(#f1vbh1i8nn62ke)" rx="12" ry="12" style="stroke: #A80036; stroke-width: 2.0;"/><line style="stroke: #A80036; stroke-width: 2.0;" x1="88" x2="112" y1="295.2344" y2="295.2344"/><text fill="#000000" font-family="sans-serif" font-size="14" lengthAdjust="spacingAndGlyphs" textLength="78" x="241" y="81.1426">homescreen</text><ellipse cx="283" cy="50.6094" fill="#FEFECE" filter="url(#f1vbh1i8nn62ke)" rx="12" ry="12" style="stroke: #A80036; stroke-width: 2.0;"/><line style="stroke: #A80036; stroke-width: 2.0;" x1="271" x2="295" y1="64.6094" y2="64.6094"/><text fill="#000000" font-family="sans-serif" font-size="14" lengthAdjust="spacingAndGlyphs" textLength="78" x="241" y="262.1582">homescreen</text><ellipse cx="283" cy="281.2344" fill="#FEFECE" filter="url(#f1vbh1i8nn62ke)" rx="12" ry="12" style="stroke: #A80036; stroke-width: 2.0;"/><line style="stroke: #A80036; stroke-width: 2.0;" x1="271" x2="295" y1="295.2344" y2="295.2344"/><text fill="#000000" font-family="sans-serif" font-size="14" lengthAdjust="spacingAndGlyphs" textLength="25" x="464.5" y="81.1426">App</text><ellipse cx="480" cy="50.6094" fill="#FEFECE" filter="url(#f1vbh1i8nn62ke)" rx="12" ry="12" style="stroke: #A80036; stroke-width: 2.0;"/><line style="stroke: #A80036; stroke-width: 2.0;" x1="468" x2="492" y1="64.6094" y2="64.6094"/><text fill="#000000" font-family="sans-serif" font-size="14" lengthAdjust="spacingAndGlyphs" textLength="25" x="464.5" y="262.1582">App</text><ellipse cx="480" cy="281.2344" fill="#FEFECE" filter="url(#f1vbh1i8nn62ke)" rx="12" ry="12" style="stroke: #A80036; stroke-width: 2.0;"/><line style="stroke: #A80036; stroke-width: 2.0;" x1="468" x2="492" y1="295.2344" y2="295.2344"/><polygon fill="#A80036" points="111,112.2188,101,116.2188,111,120.2188,107,116.2188" style="stroke: #A80036; stroke-width: 1.0;"/><line style="stroke: #A80036; stroke-width: 1.0;" x1="105" x2="479" y1="116.2188" y2="116.2188"/><text fill="#000000" font-family="sans-serif" font-size="13" lengthAdjust="spacingAndGlyphs" textLength="101" x="117" y="111.7139">showInformation()</text><path d="M8,129.5703 L8,155.5703 L189,155.5703 L189,139.5703 L179,129.5703 L8,129.5703 " fill="#FBFB77" filter="url(#f1vbh1i8nn62ke)" style="stroke: #A80036; stroke-width: 1.0;"/><path d="M179,129.5703 L179,139.5703 L189,139.5703 L179,129.5703 " fill="#FBFB77" style="stroke: #A80036; stroke-width: 1.0;"/><text fill="#000000" font-family="sans-serif" font-size="13" lengthAdjust="spacingAndGlyphs" textLength="160" x="14" y="148.0654">{"info":"display information"}</text><polygon fill="#A80036" points="271,182.9219,281,186.9219,271,190.9219,275,186.9219" style="stroke: #A80036; stroke-width: 1.0;"/><line style="stroke: #A80036; stroke-width: 1.0;" x1="100" x2="277" y1="186.9219" y2="186.9219"/><text fill="#000000" font-family="sans-serif" font-size="13" lengthAdjust="spacingAndGlyphs" textLength="159" x="107" y="182.417">push showInformation event</text><line style="stroke: #A80036; stroke-width: 1.0;" x1="283" x2="325" y1="217.625" y2="217.625"/><line style="stroke: #A80036; stroke-width: 1.0;" x1="325" x2="325" y1="217.625" y2="230.625"/><line style="stroke: #A80036; stroke-width: 1.0;" x1="284" x2="325" y1="230.625" y2="230.625"/><polygon fill="#A80036" points="294,226.625,284,230.625,294,234.625,290,230.625" style="stroke: #A80036; stroke-width: 1.0;"/><text fill="#000000" font-family="sans-serif" font-size="13" lengthAdjust="spacingAndGlyphs" textLength="183" x="290" y="212.7686">display information message 3s</text><!--
@startuml

title show information on HomeScreen bottom area

entity "homescreen-service" as hss
entity homescreen
entity App

App->hss: showInformation()
note over hss
{"info":"display information"}
end note
hss-> homescreen: push showInformation event

homescreen->homescreen: display information message 3s

@enduml

PlantUML version 1.2018.01(Mon Jan 29 02:08:22 CST 2018)
(GPL source distribution)
Java Runtime: Java(TM) SE Runtime Environment
JVM: Java HotSpot(TM) 64-Bit Server VM
Java Version: 1.8.0_45-b15
Operating System: Windows 7
OS Version: 6.1
Default Encoding: MS932
Language: ja
Country: JP
--></g></svg>